# xmcd
#
# Track frame offsets: 
#        300
#        15004
#        27225
#        39226
#        51494
#        65297
#        79656
#        93858
#        107520
#        121675
#        136120
#        148685
#        162331
#        175828
#        188425
#        201703
#
# Disc length: 2858 seconds
#
# Revision: 2
# Processed by: cddbd v1.5.2PL0 Copyright (c) Steve Scherf et al.
# Submitted via: ExactAudioCopy v1.0b1
#
DISCID=c60b2610
DTITLE=T-Bone Walker - T. Bone Shuffle
DYEAR=1992
DGENRE=Texas Blues
TTITLE0=I Got A Break Baby
TTITLE1=No Worry Blues
TTITLE2=Bobby Sox Blues
TTITLE3=I'm In An Awful Mood
TTITLE4=Don't Give Me The Runaround
TTITLE5=Hard Pain Blues
TTITLE6=Goodbye Blues
TTITLE7=I'm Waiting For Your Call
TTITLE8=First Love Blues
TTITLE9=Born To Be No Good
TTITLE10=Inspiration Blues
TTITLE11=Description Blues
TTITLE12=T. Bone Shuffle
TTITLE13=I Want A Little Girl
TTITLE14=I'm Still In Love With You
TTITLE15=West Side Baby
EXTD=
EXTT0=
EXTT1=
EXTT2=
EXTT3=
EXTT4=
EXTT5=
EXTT6=
EXTT7=
EXTT8=
EXTT9=
EXTT10=
EXTT11=
EXTT12=
EXTT13=
EXTT14=
EXTT15=
PLAYORDER=
